<svg xmlns="http://www.w3.org/2000/svg" width="129" height="35" viewBox="0 0 129 35" fill="none">
  <path d="M18.8583 0.0145597C9.20036 -0.369325 1.06042 7.14841 0.678131 16.8063C0.294247 26.4642 7.81358 34.6025 17.4699 34.9864C27.1278 35.3703 35.2661 27.8526 35.65 18.1947C36.0323 8.53679 28.5145 0.396844 18.8583 0.0145597ZM26.2448 25.65C26.0273 26.0339 25.6034 26.2259 25.1907 26.1683C25.0644 26.1507 24.938 26.1091 24.8197 26.0419C22.5068 24.7255 19.9859 23.8682 17.3275 23.4939C14.6691 23.1196 12.0091 23.2492 9.4227 23.8778C8.86126 24.0137 8.29663 23.6698 8.16068 23.1084C8.02472 22.547 8.36861 21.9823 8.93004 21.8464C11.774 21.1554 14.6979 21.013 17.6186 21.4241C20.5393 21.8352 23.3097 22.7773 25.8545 24.2249C26.3552 24.5112 26.5311 25.1478 26.2464 25.65H26.2448ZM28.5449 21.0562C28.1882 21.7152 27.3629 21.9615 26.7039 21.6049C23.9975 20.1413 21.0672 19.18 17.9945 18.7481C14.9218 18.3162 11.8412 18.433 8.83567 19.0936C8.67252 19.1288 8.51097 19.1352 8.35422 19.1128C7.80878 19.036 7.34172 18.6297 7.21696 18.0587C7.05541 17.3261 7.51927 16.6016 8.25185 16.44C11.574 15.709 14.9794 15.5795 18.3736 16.0561C21.7662 16.5328 25.0052 17.5949 27.9963 19.2136C28.6569 19.5703 28.9016 20.394 28.5449 21.0546V21.0562ZM31.0946 15.8786C30.7587 16.5248 30.0597 16.8591 29.3783 16.7631C29.1943 16.7375 29.0136 16.6799 28.8392 16.5904C25.6882 14.9509 22.294 13.868 18.7511 13.3705C15.2082 12.8731 11.646 12.9787 8.16547 13.6856C7.26015 13.8696 6.37881 13.2842 6.19487 12.3804C6.01092 11.4751 6.59635 10.5938 7.50008 10.4098C11.3549 9.62766 15.2961 9.5109 19.2165 10.0611C23.137 10.6114 26.8926 11.811 30.3828 13.6265C31.2017 14.0519 31.52 15.0612 31.0946 15.8802V15.8786Z" fill="black"/>
  <path d="M49.731 26.6465C46.7127 26.6465 44.1215 25.6021 43.0386 24.4152C42.9363 24.2985 42.9219 24.2345 42.9219 24.0921V20.5588C42.9219 20.3908 43.0642 20.3269 43.1794 20.4692C44.4814 22.0943 47.255 23.4219 49.5247 23.4219C51.3305 23.4219 52.543 22.9325 52.543 21.3329C52.543 20.378 52.0919 19.759 49.6287 19.0632L48.2099 18.6634C44.9213 17.7356 42.9219 16.6384 42.9219 13.4921C42.9219 10.7074 45.5003 8.25689 49.8078 8.25689C51.9224 8.25689 54.0241 8.91429 55.2366 9.81802C55.3389 9.8948 55.3789 9.97317 55.3789 10.1139V13.3258C55.3789 13.5449 55.1982 13.6089 55.0302 13.4681C54.0497 12.6556 52.1543 11.5599 49.9102 11.5599C47.666 11.5599 46.6088 12.566 46.6088 13.4937C46.6088 14.4742 47.2918 14.7445 49.7294 15.4675L50.9419 15.829C54.6943 16.9503 56.2299 18.5242 56.2299 21.1298C56.2299 24.4824 53.4451 26.6497 49.731 26.6497V26.6465ZM76.0255 19.9142C76.0255 17.8636 77.4443 16.3425 79.4437 16.3425C81.4431 16.3425 82.8474 17.8636 82.8474 19.9142C82.8474 21.9648 81.4287 23.4859 79.4437 23.4859C77.4587 23.4859 76.0255 21.9648 76.0255 19.9142ZM79.4293 26.6465C83.5944 26.6465 86.4959 23.6682 86.4959 19.9142C86.4959 16.1601 83.5944 13.1818 79.4293 13.1818C75.2641 13.1818 72.3754 16.1345 72.3754 19.9142C72.3754 23.6938 75.2513 26.6465 79.4293 26.6465ZM104.577 12.4092V13.4921H102.384C102.267 13.4921 102.203 13.5561 102.203 13.6729V16.2513C102.203 16.368 102.267 16.432 102.384 16.432H104.577V26.1555C104.577 26.2723 104.641 26.3362 104.758 26.3362H108.059C108.176 26.3362 108.24 26.2723 108.24 26.1555V16.432H111.065L115.166 25.3429L112.96 30.1911C112.896 30.3334 112.973 30.3974 113.102 30.3974H116.623C116.74 30.3974 116.791 30.3718 116.842 30.2551L124.128 13.6969C124.179 13.5801 124.115 13.4905 123.985 13.4905H120.684C120.567 13.4905 120.516 13.5161 120.465 13.6329L117.138 21.6289L113.798 13.6329C113.747 13.5161 113.696 13.4905 113.579 13.4905H108.24V12.6396C108.24 11.2464 109.182 10.6018 110.393 10.6018C111.114 10.6018 111.901 10.9761 112.456 11.3104C112.586 11.3871 112.675 11.2976 112.624 11.1808L111.463 8.40885C111.424 8.31927 111.373 8.26649 111.282 8.2153C110.714 7.91939 109.787 7.66027 108.883 7.66027C106.149 7.66027 104.575 9.74924 104.575 12.406L104.577 12.4092ZM65.7086 26.5682C69.01 26.5682 71.3821 23.7178 71.3821 19.8886C71.3821 16.0593 68.9828 13.2602 65.6814 13.2602C63.2309 13.2602 61.8122 14.7557 60.9868 16.2513V13.6729C60.9868 13.5561 60.9228 13.4921 60.8061 13.4921H57.5687C57.4519 13.4921 57.3879 13.5561 57.3879 13.6729V30.2183C57.3879 30.335 57.4519 30.399 57.5687 30.399H60.8061C60.9228 30.399 60.9868 30.335 60.9868 30.2183V23.6027C61.8122 25.0982 63.2054 26.5682 65.707 26.5682H65.7086ZM93.2539 26.517C94.3368 26.517 95.3812 26.2339 96.0003 25.8724C96.0898 25.8212 96.1026 25.77 96.1026 25.6788V23.2284C96.1026 23.0988 96.0387 23.0604 95.9219 23.126C95.5476 23.3323 95.0582 23.5003 94.388 23.5003C93.3307 23.5003 92.6605 22.8813 92.6605 21.5137V16.432H95.8851C96.0019 16.432 96.0658 16.368 96.0658 16.2513V13.6729C96.0658 13.5561 96.0019 13.4921 95.8851 13.4921H92.6605V10.1267C92.6605 9.98437 92.5709 9.90759 92.4413 10.01L86.6767 14.5494C86.5999 14.6134 86.5743 14.679 86.5743 14.7813V16.2513C86.5743 16.368 86.6383 16.432 86.7551 16.432H88.9992V22.0543C88.9992 25.0982 90.7523 26.517 93.2555 26.517H93.2539ZM96.9808 9.67566C96.9808 10.8369 97.8829 11.7135 99.1209 11.7135C100.359 11.7135 101.287 10.8369 101.287 9.67566C101.287 8.51441 100.385 7.63788 99.1209 7.63788C97.8573 7.63788 96.9808 8.51441 96.9808 9.67566ZM97.4846 26.3362H100.786C100.903 26.3362 100.967 26.2723 100.967 26.1555V13.6729C100.967 13.5561 100.903 13.4921 100.786 13.4921H97.4846C97.3679 13.4921 97.3039 13.5561 97.3039 13.6729V26.1555C97.3039 26.2723 97.3679 26.3362 97.4846 26.3362ZM60.9116 19.863C61.5051 17.8764 62.8711 16.3553 64.7281 16.3553C66.5851 16.3553 67.7192 17.6956 67.7192 19.8886C67.7192 22.0815 66.494 23.4475 64.7281 23.4475C62.9622 23.4475 61.5035 21.7456 60.9116 19.863Z" fill="black"/>
  <path d="M128.359 14.2502C128.189 13.9575 127.954 13.7288 127.653 13.5624C127.353 13.3977 127.017 13.3145 126.642 13.3145C126.268 13.3145 125.932 13.3977 125.632 13.5624C125.331 13.7288 125.096 13.9575 124.926 14.2502C124.757 14.5429 124.672 14.874 124.672 15.2435C124.672 15.613 124.757 15.9377 124.926 16.2304C125.096 16.5231 125.331 16.7519 125.632 16.9182C125.932 17.0846 126.268 17.1662 126.642 17.1662C127.017 17.1662 127.353 17.083 127.653 16.9182C127.954 16.7535 128.189 16.5231 128.359 16.2304C128.528 15.9377 128.613 15.6098 128.613 15.2435C128.613 14.8772 128.528 14.5429 128.359 14.2502ZM128.05 16.0673C127.912 16.3104 127.721 16.4992 127.476 16.6367C127.231 16.7727 126.953 16.8415 126.644 16.8415C126.335 16.8415 126.049 16.7727 125.804 16.6367C125.56 16.5008 125.369 16.3104 125.233 16.0673C125.097 15.8258 125.03 15.5506 125.03 15.2435C125.03 14.9364 125.097 14.6629 125.233 14.423C125.369 14.1831 125.56 13.9943 125.804 13.8584C126.049 13.7224 126.329 13.6536 126.644 13.6536C126.959 13.6536 127.231 13.7224 127.476 13.8584C127.721 13.9943 127.912 14.1847 128.05 14.4278C128.188 14.6709 128.256 14.9444 128.256 15.2515C128.256 15.5586 128.188 15.8258 128.05 16.0689V16.0673Z" fill="black"/>
  <path d="M127.312 15.2068C127.443 15.1108 127.508 14.9829 127.508 14.8245C127.508 14.6662 127.444 14.5318 127.316 14.4358C127.188 14.3399 127.003 14.2919 126.76 14.2919H125.902V16.0833H126.317V15.3715H126.542L127.088 16.0833H127.596L127 15.3284C127.126 15.3044 127.233 15.2644 127.313 15.2052L127.312 15.2068ZM126.694 15.0484H126.317V14.6102H126.709C126.825 14.6102 126.915 14.6278 126.977 14.6646C127.04 14.7013 127.072 14.7573 127.072 14.8341C127.072 14.9061 127.038 14.9605 126.974 14.9957C126.908 15.0324 126.816 15.05 126.694 15.05V15.0484Z" fill="black"/>
</svg>